# xmcd
#
# Track frame offsets: 
#        150
#        16250
#        24840
#        39030
#        53225
#        64935
#        77647
#        91635
#        101292
#        114600
#        130875
#        154860
#        170775
#        185087
#
# Disc length: 2625 seconds
#
# Revision: 1
# Processed by: cddbd v1.5.1PL2 Copyright (c) Steve Scherf et al.
# Submitted via: ExactAudioCopy v0.90b4
#
DISCID=a60a3f0e
DTITLE=Paulinho da Viola - Meus Momentos [CD2]
DYEAR=1999
DGENRE=Samba
TTITLE0=Coisas Do Mundo, Minha Nega
TTITLE1=Jurar Com Lágrimas
TTITLE2=Meu Mundo É Hoje (Eu Sou Assim)
TTITLE3=Duas Horas Da Manhã
TTITLE4=Ironia
TTITLE5=Lapa Em Três Tempos
TTITLE6=Acontece
TTITLE7=Coração
TTITLE8=Para Um Amor No Recife
TTITLE9=Perder E Ganhar
TTITLE10=Amor À Natureza
TTITLE11=Pra Que Mentir
TTITLE12=Mente Ao Meu Coração
TTITLE13=Sonho De Um Carnaval
EXTD=
EXTT0=
EXTT1=
EXTT2=
EXTT3=
EXTT4=
EXTT5=
EXTT6=
EXTT7=
EXTT8=
EXTT9=
EXTT10=
EXTT11=
EXTT12=
EXTT13=
PLAYORDER=
